<svg width="2560" height="1269" viewBox="0 0 2560 1269" fill="none" xmlns="http://www.w3.org/2000/svg">
<path d="M2597.73 544.159C2491.7 593.809 2376.39 591.026 2301.66 569.937C2230.25 550.099 2170.18 514.438 2113.23 479.419C2088.05 464.574 2062.47 448.513 2035.8 435.066C1925.65 376.587 1820.59 360.593 1715.21 385.402C1595.58 414.082 1485.68 493.584 1378.94 570.901C1368.8 578.457 1359.29 585.011 1349.14 592.567C1241.57 670.278 1100.83 759.313 971.905 759.398C934.143 759.556 900.492 751.48 867.88 743.618C839.623 737.222 811.168 730.218 780.534 728.44C644.04 720.153 493.751 806.65 415.832 859.259C352.268 902.342 292.365 950.721 234.789 997.309C188.649 1034.34 141.865 1072.37 93.2514 1107.75C-40.9567 1204.94 -166.686 1259.61 -271.759 1267.45C-340.9 1272.49 -403.944 1251.54 -439.315 1211.32C-468.156 1179.26 -475.762 1137.96 -460.997 1093.9C-439.394 1029.1 -370.575 960.426 -276.869 911.64C-206.528 874.496 -131.639 851.345 -58.4327 828.983C-46.0584 825.291 -34.7234 821.386 -22.3491 817.694C100.8 778.955 260.58 721.661 395.432 623.466C532.61 523.48 619.864 392.195 617.974 287.932C616.957 228.123 580.105 177.384 519.636 152.424C468.074 131.004 405.468 132.281 344.98 154.997C256.774 187.888 185.877 256.136 117.306 322.594C106.265 333.371 94.383 344.543 83.3423 355.321C8.43492 426.148 -102.358 508.871 -203.022 503.434C-325.362 496.931 -334.072 365.719 -333.562 325.524C-333.405 305.122 -331.764 283.323 -330.568 263.136C-326.288 198.744 -322.402 133.134 -352.177 83.2868C-393.526 15.7264 -501.506 -12.2217 -627.52 11.7363C-728.836 31.1391 -839.864 80.3251 -967.533 161.838C-1168.86 291.163 -1342.19 452.94 -1469.7 630.413L-1472.82 629.77C-1345.51 451.689 -1171.54 288.909 -970.007 160.193C-841.694 77.6772 -729.627 28.7056 -628.311 9.30274C-501.455 -15.0493 -392.239 13.7216 -349.85 81.4963C-319.036 131.558 -323.565 198.17 -327.846 262.562C-328.844 283.358 -330.683 304.548 -330.839 324.95C-331.547 364.537 -323.43 493.924 -202.971 500.606C-103.347 505.829 5.56554 423.285 78.9877 353.855C90.0284 343.078 101.069 332.3 113.149 321.736C182.561 254.885 254.3 186.243 343.348 152.957C405.518 129.453 468.323 128.785 520.924 150.419C582.432 175.593 619.482 226.941 620.894 287.967C622.982 392.838 534.638 526.737 396.618 627.116C260.925 725.706 101.145 782.999 -22.8457 822.133C-35.2199 825.824 -46.555 829.73 -58.9293 833.421C-131.294 855.39 -206.183 878.541 -276.525 915.685C-368.349 964.291 -436.723 1031.36 -457.682 1095.15C-472.001 1137.6 -464.593 1178.3 -436.791 1210.14C-401.617 1249.75 -339.81 1269.88 -271.51 1265.23C-167.279 1257.78 -42.5891 1202.9 90.9752 1106.71C139.589 1071.33 186.373 1033.3 232.513 996.272C290.931 949.29 350.636 900.303 414.199 857.22C492.119 804.61 644.09 717.325 782.465 725.433C814.139 727.425 842.593 734.429 870.851 740.825C903.462 748.687 936.916 756.155 973.836 756.391C1100.88 756.485 1239.94 668.239 1347.71 591.136C1357.01 583.974 1367.36 577.026 1377.51 569.47C1484.24 492.153 1594.79 411.648 1715.46 383.183C1821.68 357.979 1927.58 373.58 2038.96 432.881C2065.83 446.937 2091.22 462.39 2116.6 477.842C2174.39 512.467 2233.42 547.915 2304.83 567.752C2393.26 592.236 2538.47 591.536 2656.59 507.485L2658.42 510.133C2638.37 523.026 2617.92 534.702 2597.73 544.159Z" fill="#555774" fill-opacity="0.13"/>
</svg>
