<svg width="2278" height="585" viewBox="0 0 2278 585" fill="none" xmlns="http://www.w3.org/2000/svg">
<path d="M23.4925 21.2566C66.8969 51.8143 132.447 60.5569 181.154 57.9037C227.598 55.5046 272.797 45.3021 316.041 35.1081C334.957 30.877 354.488 26.1551 373.785 22.6545C454.432 6.92848 518.503 9.08878 569.567 28.8758C627.372 51.5617 663.302 95.3294 698.162 137.882C701.411 142.016 704.622 145.662 707.871 149.797C743.075 192.591 793.214 243.13 865.468 254.283C886.588 257.607 908.064 257.025 928.888 256.446C946.796 256.124 965.012 255.556 982.762 257.431C1061.96 265.626 1118.28 315.893 1144.97 345.304C1166.68 369.368 1184.64 395.4 1201.87 420.459C1215.77 440.409 1229.71 460.846 1245.54 480.299C1289.38 533.793 1342.21 568.214 1398.58 580.657C1435.72 588.792 1477.83 585.191 1510.66 570.894C1537.19 559.553 1554.79 542.395 1560.75 522.114C1569.57 492.305 1553.18 456.749 1516.4 427.626C1488.97 405.54 1454.46 389.096 1420.64 373.139C1414.9 370.479 1409.81 367.817 1404.06 365.158C1347.53 337.83 1276.46 299.34 1232.58 245.358C1187.98 190.403 1181.48 126.253 1216.22 81.4443C1236.11 55.7346 1273.17 37.0268 1315.13 31.4748C1350.96 26.6818 1385.65 32.6309 1412.22 47.6444C1451.05 69.4371 1468.75 104.988 1485.72 139.565C1488.43 145.166 1491.48 151.009 1494.19 156.61C1513.3 193.618 1548.69 238.853 1606.89 245.187C1677.58 252.931 1724.85 197.087 1737.55 179.705C1744.06 170.892 1750.18 161.348 1756.03 152.538C1774.43 124.394 1793.45 95.76 1826.25 76.8267C1871.26 51.2514 1940.83 48.5071 2003.74 69.7066C2054.27 86.8116 2100.63 117.6 2145.87 163.768C2216.96 236.909 2261.87 321.634 2276.02 409.177L2277.98 409.169C2264.14 321.38 2219.19 236.167 2147.79 163.271C2102.51 116.616 2055.5 85.8301 2004.97 68.7251C1941.71 47.2831 1871.19 50.2756 1825.53 75.8538C1792.08 94.79 1773.09 123.912 1754.69 152.055C1748.53 161.111 1742.72 170.41 1736.21 179.223C1723.82 196.359 1677.47 251.467 1607.77 243.963C1550.23 237.626 1515.84 192.631 1497.1 156.353C1494.4 150.752 1491.69 145.152 1488.33 139.554C1471.01 104.734 1452.97 68.9407 1413.8 46.9054C1386.54 31.4069 1351.54 25.7032 1315.06 30.4991C1272.44 36.0539 1235.08 55.0071 1214.57 81.2075C1179.52 126.261 1185.79 191.633 1230.74 246.831C1274.96 301.055 1346.03 339.545 1402.9 367.115C1408.65 369.775 1413.74 372.437 1419.49 375.096C1452.96 390.811 1487.47 407.254 1514.9 429.341C1550.68 458.224 1567.35 493.046 1558.49 522.368C1552.8 541.915 1535.5 558.829 1509.62 570.167C1477.11 584.218 1435.95 587.571 1399.16 579.679C1343.13 567.478 1290.95 533.054 1247.15 480.048C1231.33 460.595 1217.38 440.158 1203.48 420.208C1185.9 394.906 1168.26 368.629 1146.54 344.565C1119.85 315.154 1062.85 264.402 982.651 255.967C964.249 254.096 946.033 254.663 928.125 254.986C907.301 255.565 886.133 255.901 865.357 252.82C794.099 241.906 744.649 191.852 709.138 149.303C706.233 145.411 702.678 141.522 699.429 137.388C664.569 94.8358 628.602 50.5802 570.145 27.8971C518.736 7.86756 454.321 5.46478 372.715 21.439C353.11 25.185 333.886 29.6615 314.663 34.138C271.075 44.0895 226.528 54.2891 180.083 56.6883C122.594 59.6237 41.4097 46.801 2.34217 0.362767L0.460583 1.34705C7.53535 8.63693 15.225 15.4361 23.4925 21.2566Z" fill="#C4C4FF"/>
</svg>
