<svg width="2271" height="595" viewBox="0 0 2271 595" fill="none" xmlns="http://www.w3.org/2000/svg">
<path d="M21.3295 463.163C61.0515 435.198 126.846 431.832 177.156 438.837C225.107 445.381 272.995 459.924 318.878 474.288C338.913 480.334 359.654 486.944 379.967 492.265C465.025 515.639 530.328 518.983 579.568 502.877C635.265 484.347 665.279 442.004 694.386 400.831C697.072 396.818 699.796 393.31 702.482 389.297C731.904 347.902 775.424 299.763 847.712 294.476C868.833 292.865 890.924 295.342 912.346 297.761C930.743 299.657 949.492 301.836 967.384 301.436C1047.25 299.83 1097.14 252.511 1119.91 224.28C1138.43 201.171 1152.78 175.688 1166.54 151.152C1177.69 131.637 1188.8 111.618 1201.99 92.7852C1238.6 41.026 1287.37 9.86865 1343.2 1.85691C1379.98 -3.35624 1423.68 4.05807 1459.53 21.7764C1488.46 35.8742 1509.16 55.2389 1518.42 76.8309C1532.08 108.574 1520.8 144.089 1487.65 171.141C1462.97 191.697 1430.18 205.772 1398.01 219.404C1392.54 221.666 1387.73 223.988 1382.26 226.25C1328.59 249.714 1261.76 283.508 1225.19 335.771C1188.02 388.981 1191.32 455.07 1233.87 504.659C1258.24 533.108 1299.1 555.778 1342.95 565.207C1380.4 573.313 1415.01 570.157 1439.91 556.875C1476.3 537.618 1488.91 502.223 1500.93 467.775C1502.84 462.192 1505.06 456.387 1506.96 450.803C1520.8 414.017 1550.03 370.103 1608.66 368.597C1679.88 366.716 1736.98 428.865 1752.69 448.033C1760.72 457.758 1768.47 468.208 1775.83 477.873C1799.06 508.721 1822.99 540.132 1859.52 562.666C1909.6 593.166 1981.3 602.085 2042.45 585.545C2091.57 572.18 2134.28 544.232 2173.46 500.208C2234.94 430.411 2267.79 346.295 2268.7 256.567L2270.7 256.746C2270.15 346.756 2237.33 431.376 2175.5 500.891C2136.36 545.419 2092.98 573.307 2043.87 586.672C1982.4 603.434 1909.68 594.173 1858.93 563.614C1821.72 541.02 1797.76 509.105 1774.54 478.257C1766.82 468.311 1759.42 458.142 1751.39 448.417C1736.03 429.531 1679.99 368.227 1609.76 369.946C1551.8 371.512 1523.55 415.263 1509.99 451.324C1508.08 456.908 1506.18 462.491 1503.61 468.014C1491.27 502.684 1478.34 538.301 1441.63 557.78C1416.11 571.506 1381.15 574.38 1343.03 566.215C1298.51 556.726 1257.29 533.774 1232.22 504.761C1189.31 454.89 1185.59 387.513 1223.07 334.08C1259.96 281.595 1326.79 247.802 1380.77 224.115C1386.24 221.853 1391.05 219.531 1396.52 217.269C1428.37 203.86 1461.17 189.785 1485.85 169.229C1518.02 142.339 1529.68 107.609 1516.06 76.3697C1507.2 55.5632 1486.85 36.4802 1458.58 22.4422C1423.09 5.0057 1380.41 -2.06701 1343.94 2.92417C1288.43 10.714 1240.33 41.9311 1203.68 93.1867C1190.49 112.019 1179.38 132.038 1168.23 151.554C1154.15 176.311 1140.15 202.076 1121.64 225.185C1098.87 253.416 1048.35 301.179 967.498 302.948C948.937 303.287 930.188 301.109 911.791 299.212C890.369 296.794 868.631 294.598 847.826 295.988C776.52 301.112 733.631 348.807 703.857 389.921C701.485 393.711 698.446 397.442 695.76 401.454C666.653 442.628 636.677 485.474 580.312 503.944C530.756 520.272 465.139 517.15 379.059 493.434C358.393 487.832 338.005 481.504 317.617 475.176C271.419 461.034 224.2 446.55 176.248 440.006C116.898 431.942 35.7196 438.184 2.90545 483.028L0.825077 481.841C6.94124 474.884 13.7635 468.49 21.3295 463.163Z" fill="#555774" fill-opacity="0.2"/>
</svg>
