<svg width="2272" height="641" viewBox="0 0 2272 641" fill="none" xmlns="http://www.w3.org/2000/svg">
<path d="M2243.94 467.526C2194.5 485.167 2129.97 476.493 2084.5 461.409C2041.1 447.15 2001 425.846 1962.75 405.054C1945.95 396.175 1928.71 386.673 1911.35 378.384C1839.13 342.711 1777.78 328.204 1724 333.698C1663.04 340.188 1617.12 372.23 1572.54 403.401C1568.34 406.465 1564.31 409.079 1560.11 412.143C1515.14 443.454 1453.91 478.219 1382.37 470.09C1361.44 467.774 1341.23 461.678 1321.64 455.754C1304.74 450.825 1287.62 445.585 1270.28 442.771C1192.95 430.054 1125.94 462.968 1092.67 483.843C1065.56 500.953 1041.48 520.893 1018.36 540.103C999.775 555.346 981.021 571.04 960.749 585.319C904.691 624.5 845.275 643.355 788.444 640.543C751.023 638.633 712.058 624.358 684.799 602.384C662.711 584.826 650.656 564.079 650.494 543.394C650.196 512.973 675.368 483.638 718.126 465.641C750.124 451.874 787.299 445.261 823.69 438.929C829.858 437.902 835.409 436.704 841.577 435.677C902.582 424.475 980.399 406.49 1036.62 366.858C1093.8 326.494 1117.33 267.609 1096.51 216.333C1084.6 186.923 1054.52 159.692 1016.23 143.613C983.546 129.835 949.039 126.494 919.775 133.806C877.055 144.353 850.648 173.346 825.193 201.607C821.109 206.196 816.633 210.924 812.549 215.512C784.405 245.516 738.6 279.082 681.697 270.034C612.56 259.09 582.841 194.159 575.501 174.469C571.718 164.469 568.496 153.878 565.33 144.048C555.494 112.725 545.208 80.7805 519.228 54.4357C483.464 18.6666 418.232 -1.8899 352.833 1.87841C300.279 4.97704 247.983 22.0733 192.581 53.9761C105.362 104.669 39.839 173.059 2.72597 252.055L0.873563 251.542C37.7615 172.235 103.452 103.394 190.896 53.0119C246.465 20.6581 299.378 3.73288 351.932 0.634237C417.723 -3.27406 483.799 17.7645 520.18 53.7047C546.777 80.2205 556.896 112.617 566.732 143.939C570.123 154.08 573.121 164.36 576.903 174.36C584.018 193.739 613.062 257.737 681.188 268.65C737.474 277.527 782.269 243.93 809.854 214.517C813.938 209.929 818.022 205.34 822.723 200.923C848.571 172.522 875.37 143.389 918.482 132.702C948.531 125.11 983.263 128.762 1016.56 142.711C1055.48 158.961 1085.78 186.503 1098.13 216.535C1119.18 268.122 1095.54 328.22 1037.97 368.724C981.358 408.497 903.54 426.481 842.143 437.823C835.975 438.85 830.424 440.048 824.256 441.075C788.258 447.268 751.082 453.88 719.085 467.647C677.337 485.675 652.107 514.248 652.571 544.218C652.676 564.141 664.505 584.577 685.976 601.964C713.01 623.627 751.132 637.42 788.161 639.47C844.6 642.421 903.399 623.396 959.289 584.666C979.561 570.387 998.315 554.693 1016.9 539.449C1040.42 520.1 1064.26 499.849 1091.37 482.739C1124.64 461.864 1192.44 428.67 1270.78 441.418C1288.74 444.403 1305.86 449.643 1322.76 454.572C1342.35 460.496 1362.33 466.281 1382.87 468.736C1453.4 476.835 1513.84 442.35 1559.04 411.35C1562.85 408.426 1567.27 405.672 1571.47 402.608C1616.05 371.437 1662.14 338.944 1723.71 332.625C1777.89 326.991 1839.63 341.358 1912.7 377.513C1930.28 386.113 1947.3 395.304 1964.31 404.494C2002.96 425.146 2042.44 446.279 2085.84 460.538C2139.57 478.156 2220.03 487.016 2269.65 453.262L2271.17 454.678C2262.48 459.733 2253.35 464.166 2243.94 467.526Z" fill="#C4C4FF"/>
</svg>
