<svg width="2277" height="628" viewBox="0 0 2277 628" fill="none" xmlns="http://www.w3.org/2000/svg">
<path d="M28.3492 443.045C78.3191 460.877 142.937 452.956 188.298 438.546C231.59 424.927 271.44 404.343 309.44 384.247C326.128 375.668 343.257 366.482 360.519 358.49C432.339 324.072 493.647 310.381 547.748 316.301C609.075 323.269 655.797 355.24 701.152 386.341C705.428 389.397 709.527 392.007 713.803 395.062C759.555 426.305 821.697 461.102 893.364 453.784C914.331 451.704 934.502 445.898 954.056 440.255C970.924 435.565 988.012 430.572 1005.37 427.968C1082.76 416.19 1150.67 449.221 1184.47 470.081C1212.02 487.178 1236.57 507.031 1260.16 526.156C1279.11 541.335 1298.24 556.958 1318.87 571.204C1375.91 610.298 1435.92 629.419 1492.93 627.195C1530.46 625.671 1569.3 611.995 1596.24 590.629C1618.08 573.561 1629.78 553.259 1629.54 532.903C1629.25 502.968 1603.41 473.859 1560.14 455.74C1527.75 441.887 1490.3 435.024 1453.64 428.446C1447.43 427.376 1441.83 426.144 1435.62 425.075C1374.16 413.469 1295.69 395.028 1238.47 355.488C1180.29 315.22 1155.53 257.046 1175.44 206.782C1186.83 177.953 1216.5 151.441 1254.63 135.983C1287.18 122.736 1321.75 119.776 1351.27 127.251C1394.37 138.039 1421.44 166.823 1447.54 194.878C1451.73 199.432 1456.32 204.128 1460.5 208.683C1489.34 238.478 1535.97 271.948 1592.93 263.587C1662.12 253.475 1690.7 189.859 1697.69 170.552C1701.3 160.746 1704.33 150.354 1707.31 140.711C1716.58 109.979 1726.29 78.6398 1751.87 52.9611C1787.08 18.1009 1852.17 -1.50704 1917.9 2.82507C1970.72 6.37568 2023.55 23.6991 2079.79 55.6236C2168.33 106.343 2235.44 174.273 2274.23 252.368L2276.08 251.881C2237.51 173.481 2170.23 105.107 2081.46 54.6909C2025.05 22.3209 1971.6 5.15985 1918.78 1.60924C1852.65 -2.86437 1786.72 17.21 1750.9 52.2326C1724.71 78.0737 1715.17 109.859 1705.9 140.59C1702.7 150.537 1699.89 160.626 1696.28 170.431C1689.51 189.434 1661.59 252.139 1593.41 262.229C1537.07 270.429 1491.45 236.938 1463.19 207.729C1459 203.175 1454.81 198.62 1450.01 194.228C1423.51 166.031 1396.04 137.106 1352.55 126.177C1322.24 118.419 1287.44 121.682 1254.28 135.092C1215.53 150.713 1185.64 177.529 1173.81 206.966C1153.68 257.533 1178.57 316.902 1237.15 357.312C1294.76 396.993 1373.23 415.434 1435.09 427.182C1441.31 428.251 1446.9 429.483 1453.11 430.552C1489.37 436.99 1526.82 443.852 1559.21 457.705C1601.47 475.845 1627.36 504.205 1627.47 533.695C1627.75 553.301 1616.27 573.299 1595.05 590.205C1568.33 611.266 1530.32 624.477 1493.19 626.141C1436.58 628.507 1377.19 609.224 1320.33 570.575C1299.7 556.33 1280.57 540.706 1261.61 525.527C1237.63 506.261 1213.3 486.104 1185.75 469.007C1151.94 448.147 1083.24 414.833 1004.84 426.631C986.866 429.398 969.778 434.391 952.91 439.081C933.355 444.724 913.405 450.226 892.834 452.447C822.181 459.744 760.831 425.231 714.859 394.292C710.98 391.378 706.484 388.626 702.209 385.571C656.853 354.469 609.955 322.053 548.012 315.247C493.514 309.186 431.809 322.736 359.152 357.62C341.671 365.916 324.762 374.798 307.854 383.68C269.457 403.636 230.224 424.057 186.932 437.676C133.335 454.501 52.7262 462.453 2.25838 428.763L0.76186 430.141C9.57645 435.199 18.8311 439.649 28.3492 443.045Z" fill="#C4C4FF"/>
</svg>
