<svg width="733" height="1418" viewBox="0 0 733 1418" fill="none" xmlns="http://www.w3.org/2000/svg">
<path d="M297.767 21.1881C248.383 49.9203 211.575 94.5521 207.348 152.268C205.098 179.581 209.872 208.598 222.744 232.02C232.165 217.783 246.742 207.713 265.202 204.091C287.425 199.979 309.021 206.836 320.924 224.839C322.12 224.482 324.088 224.527 324.61 226.273C334.093 255.784 311.814 281.479 280.25 282.679C256.385 283.478 237.58 270.711 223.884 253.244C216.554 274.466 218.141 299.363 222.27 319.692C234.036 376.428 266.556 426.319 301.618 471.643C374.407 564.665 461.424 646.453 528.507 744.355C586.8 830.298 632.856 931.955 629.312 1037.67C627.072 1115.09 586.964 1198.77 505.772 1214.82C505.216 1239.09 500.301 1264.02 493.818 1283.72C477.336 1337.5 443.616 1383.74 396.822 1416.77C394.181 1418.83 391.591 1414.53 394.233 1412.47C449.699 1369.24 487.858 1305.17 493.733 1235.55C494.557 1229.59 494.609 1223.23 494.66 1216.87L494.062 1217.05C493.465 1217.23 493.041 1217.99 491.671 1217.77C452.758 1220.53 390.582 1208.69 396.551 1156.8C401.221 1117.98 452.79 1113.96 476.947 1135.91C496.548 1153.51 503.789 1179.89 504.279 1207.65C610.561 1179.65 629.482 1053.48 611.971 962.307C593.491 865.719 541.526 779.15 481.91 701.848C421.697 624.725 351.516 555.659 291.477 479.118C246.08 421.029 189.157 335.31 211.925 256.823C213.098 252.032 215.042 247.645 216.986 243.257C213.102 236.808 209.642 229.598 206.779 222.209C175.813 142.677 214.579 47.9851 294.73 13.2171C299.339 11.2034 302.202 18.5923 297.767 21.1881ZM446.556 1132.32C425.407 1129.14 408.712 1143.01 405.916 1164.15C404.193 1177.98 418.039 1191.6 428.002 1198.76C446.807 1211.53 470.672 1210.73 492.744 1210.47C493.342 1210.29 494.114 1210.69 494.886 1211.1L495.484 1210.92C494.1 1175.81 484.146 1138.2 446.556 1132.32ZM319.375 239.257C318.603 238.854 317.233 238.63 316.884 237.465C303.466 207.864 260.941 207.269 238.813 229.114C234.727 232.874 231.586 237.619 229.044 242.186C235.942 252.173 244.285 260.459 255.095 266.104C282.369 278.874 313.787 266.301 319.375 239.257Z" fill="#EBEBEB"/>
</svg>
