<svg width="482" height="986" viewBox="0 0 482 986" fill="none" xmlns="http://www.w3.org/2000/svg">
<path d="M455.943 6.55993C474.289 42.2359 481.842 85.589 468.844 128.538C462.823 148.938 452.666 168.445 439.734 181.463C438.542 168.336 433.546 156.658 424.811 148.462C414.23 138.773 401.086 137.194 390.091 146.594C389.558 145.974 388.513 145.411 387.778 146.514C375.02 164.954 379.939 190.242 396.191 200.652C408.508 208.444 421.745 204.912 433.539 196.443C431.792 213.981 424.394 231.476 416.867 244.906C395.731 282.311 365.506 308.499 335.151 330.622C272.416 375.776 205.175 408.516 144.149 458.917C90.8897 503.343 39.9106 562.813 13.897 640.212C-5.33967 696.785 -6.34899 769.326 32.0378 805.464C25.9304 823.153 21.9347 842.646 20.1435 858.829C14.6176 902.636 20.1243 946.219 35.9779 984.217C36.8214 986.502 39.3143 984.181 38.4708 981.895C20.7561 933.907 17.6175 876.115 32.8917 824.069C34.0294 819.52 35.6787 814.914 37.328 810.308L37.5947 810.618C37.8614 810.928 37.8831 811.605 38.6614 811.858C58.3584 825.62 94.1172 835.871 104.667 796.599C112.451 767.159 86.4403 748.668 67.9726 757.21C53.0428 763.993 42.2873 780.846 34.7103 800.742C-13.6961 748.392 9.64036 651.573 42.8705 591.042C78.0385 526.893 128.141 480.103 179.816 442.317C231.758 404.84 286.807 376.194 338.504 339.085C377.649 310.871 430.13 266.193 438.873 202.642C439.521 198.829 439.657 195.073 439.793 191.317C443.533 187.836 447.25 183.676 450.701 179.207C487.926 131.148 492.544 51.0597 459.639 1.72299C457.75 -1.12443 454.299 3.34481 455.943 6.55993ZM84.8722 763.806C96.8136 767.901 101.918 782.967 97.814 799.071C95.0705 809.581 84.212 815.225 77.0927 817.388C63.8558 820.92 51.539 813.127 40.0223 806.264C39.7556 805.954 39.244 806.012 38.7324 806.069L38.4657 805.759C48.4486 780.832 63.5912 756.683 84.8722 763.806ZM387.103 157.472C387.614 157.414 388.393 157.666 388.883 156.931C403.731 139.616 426.209 152.044 432.065 174.507C433.219 178.457 433.616 182.833 433.747 186.898C427.493 192.023 420.929 195.483 413.766 196.291C396.082 197.263 382.906 178.687 387.103 157.472Z" fill="#EBEBEB"/>
</svg>
