<svg width="2278" height="585" viewBox="0 0 2278 585" fill="none" xmlns="http://www.w3.org/2000/svg">
<path d="M23.4613 21.2576C66.8656 51.8152 132.415 60.5579 181.123 57.9047C227.567 55.5056 272.766 45.303 316.01 35.1091C334.926 30.878 354.457 26.1561 373.754 22.6554C454.4 6.92945 518.472 9.08976 569.536 28.8768C627.341 51.5627 663.271 95.3304 698.131 137.883C701.38 142.017 704.591 145.663 707.84 149.798C743.044 192.592 793.183 243.131 865.437 254.284C886.557 257.608 908.033 257.026 928.856 256.447C946.765 256.125 964.981 255.557 982.731 257.432C1061.93 265.627 1118.25 315.894 1144.94 345.305C1166.65 369.369 1184.61 395.401 1201.83 420.46C1215.74 440.41 1229.68 460.847 1245.51 480.3C1289.35 533.794 1342.18 568.215 1398.55 580.658C1435.69 588.793 1477.8 585.192 1510.63 570.895C1537.15 559.554 1554.76 542.396 1560.72 522.115C1569.54 492.306 1553.15 456.749 1516.37 427.627C1488.94 405.541 1454.43 389.097 1420.61 373.14C1414.87 370.48 1409.77 367.818 1404.03 365.159C1347.5 337.831 1276.43 299.341 1232.55 245.359C1187.95 190.404 1181.44 126.254 1216.19 81.4453C1236.08 55.7356 1273.14 37.0278 1315.1 31.4758C1350.93 26.6828 1385.62 32.6319 1412.19 47.6454C1451.02 69.4381 1468.72 104.989 1485.69 139.566C1488.4 145.167 1491.45 151.01 1494.16 156.611C1513.27 193.619 1548.66 238.854 1606.85 245.188C1677.55 252.932 1724.82 197.088 1737.52 179.706C1744.03 170.893 1750.15 161.349 1756 152.539C1774.4 124.395 1793.42 95.761 1826.22 76.8277C1871.23 51.2523 1940.8 48.5081 2003.71 69.7075C2054.24 86.8126 2100.6 117.601 2145.84 163.769C2216.93 236.91 2261.84 321.635 2275.99 409.178L2277.95 409.17C2264.11 321.381 2219.16 236.168 2147.76 163.272C2102.48 116.617 2055.47 85.8311 2004.94 68.7261C1941.68 47.2841 1871.16 50.2765 1825.49 75.8548C1792.04 94.7909 1773.06 123.913 1754.66 152.056C1748.5 161.112 1742.68 170.411 1736.18 179.224C1723.79 196.36 1677.43 251.468 1607.74 243.964C1550.2 237.627 1515.81 192.632 1497.07 156.354C1494.37 150.753 1491.66 145.153 1488.3 139.555C1470.98 104.735 1452.94 68.9417 1413.77 46.9064C1386.5 31.4078 1351.51 25.7041 1315.03 30.5C1272.41 36.0548 1235.05 55.0081 1214.54 81.2085C1179.49 126.262 1185.76 191.634 1230.71 246.832C1274.93 301.056 1346 339.546 1402.87 367.116C1408.62 369.776 1413.71 372.438 1419.46 375.097C1452.93 390.812 1487.44 407.255 1514.87 429.342C1550.65 458.225 1567.32 493.047 1558.46 522.369C1552.77 541.916 1535.47 558.83 1509.59 570.168C1477.08 584.219 1435.92 587.572 1399.13 579.679C1343.1 567.479 1290.92 533.055 1247.12 480.049C1231.29 460.596 1217.35 440.159 1203.45 420.209C1185.87 394.907 1168.23 368.63 1146.51 344.566C1119.82 315.155 1062.82 264.403 982.62 255.968C964.218 254.097 946.002 254.664 928.093 254.987C907.27 255.566 886.101 255.902 865.326 252.821C794.068 241.907 744.618 191.853 709.106 149.304C706.202 145.412 702.646 141.523 699.398 137.389C664.538 94.8368 628.571 50.5811 570.114 27.8981C518.705 7.86854 454.289 5.46575 372.684 21.44C353.079 25.186 333.855 29.6625 314.632 34.139C271.044 44.0904 226.496 54.2901 180.052 56.6892C122.563 59.6247 41.3785 46.802 2.31092 0.363744L0.429333 1.34802C7.5041 8.6379 15.1938 15.4371 23.4613 21.2576Z" fill="#C4C4FF" fill-opacity="0.4"/>
</svg>
