<svg width="2277" height="628" viewBox="0 0 2277 628" fill="none" xmlns="http://www.w3.org/2000/svg">
<path d="M28.3492 442.728C78.3191 460.559 142.937 452.639 188.298 438.229C231.59 424.61 271.44 404.026 309.44 383.929C326.128 375.351 343.257 366.164 360.519 358.173C432.339 323.755 493.647 310.064 547.748 315.983C609.075 322.951 655.797 354.922 701.152 386.024C705.428 389.079 709.527 391.689 713.803 394.745C759.555 425.988 821.697 460.784 893.364 453.466C914.331 451.387 934.502 445.581 954.056 439.938C970.924 435.248 988.012 430.254 1005.37 427.65C1082.76 415.873 1150.67 448.904 1184.47 469.764C1212.02 486.861 1236.57 506.714 1260.16 525.839C1279.11 541.017 1298.24 556.641 1318.87 570.887C1375.91 609.981 1435.92 629.102 1492.93 626.877C1530.46 625.354 1569.3 611.677 1596.24 590.312C1618.08 573.244 1629.78 552.941 1629.54 532.586C1629.25 502.651 1603.41 473.542 1560.14 455.422C1527.75 441.569 1490.3 434.707 1453.64 428.128C1447.43 427.059 1441.83 425.827 1435.62 424.757C1374.16 413.151 1295.69 394.71 1238.47 355.171C1180.29 314.903 1155.53 256.729 1175.44 206.465C1186.83 177.636 1216.5 151.124 1254.63 135.665C1287.18 122.418 1321.75 119.459 1351.27 126.934C1394.37 137.721 1421.44 166.505 1447.54 194.561C1451.73 199.115 1456.32 203.811 1460.5 208.366C1489.34 238.161 1535.97 271.631 1592.93 263.269C1662.12 253.158 1690.7 189.541 1697.69 170.234C1701.3 160.429 1704.33 150.037 1707.31 140.394C1716.58 109.662 1726.29 78.3225 1751.87 52.6437C1787.08 17.7836 1852.17 -1.82442 1917.9 2.50769C1970.72 6.05829 2023.55 23.3817 2079.79 55.3063C2168.33 106.026 2235.44 173.955 2274.23 252.051L2276.08 251.563C2237.51 173.164 2170.23 104.789 2081.46 54.3735C2025.05 22.0035 1971.6 4.84247 1918.78 1.29186C1852.65 -3.18176 1786.72 16.8926 1750.9 51.9152C1724.71 77.7564 1715.17 109.541 1705.9 140.273C1702.7 150.22 1699.89 160.308 1696.28 170.114C1689.51 189.117 1661.59 251.822 1593.41 261.912C1537.07 270.111 1491.45 236.62 1463.19 207.412C1459 202.857 1454.81 198.303 1450.01 193.911C1423.51 165.714 1396.04 136.789 1352.55 125.859C1322.24 118.102 1287.44 121.365 1254.28 134.775C1215.53 150.395 1185.64 177.211 1173.81 206.648C1153.68 257.216 1178.57 316.585 1237.15 356.995C1294.76 396.676 1373.23 415.117 1435.09 426.864C1441.31 427.934 1446.9 429.165 1453.11 430.235C1489.37 436.672 1526.82 443.534 1559.21 457.387C1601.47 475.528 1627.36 503.887 1627.47 533.377C1627.75 552.983 1616.27 572.982 1595.05 589.887C1568.33 610.949 1530.32 624.159 1493.19 625.824C1436.58 628.19 1377.19 608.906 1320.33 570.258C1299.7 556.012 1280.57 540.388 1261.61 525.21C1237.63 505.944 1213.3 485.786 1185.75 468.689C1151.94 447.829 1083.24 414.516 1004.84 426.314C986.866 429.08 969.778 434.074 952.91 438.764C933.355 444.407 913.405 449.909 892.834 452.13C822.181 459.427 760.831 424.913 714.859 393.975C710.98 391.06 706.484 388.309 702.209 385.253C656.853 354.152 609.955 321.735 548.012 314.93C493.514 308.869 431.809 322.418 359.152 357.303C341.671 365.598 324.762 374.481 307.854 383.363C269.457 403.318 230.224 423.74 186.932 437.358C133.335 454.184 52.7262 462.136 2.25838 428.445L0.76186 429.824C9.57645 434.881 18.8311 439.331 28.3492 442.728Z" fill="#C4C4FF"/>
</svg>
